<svg width="2048" height="2048" viewBox="0 0 2048 2048" fill="none" xmlns="http://www.w3.org/2000/svg">
<path d="M597.333 1390.94C785.067 1390.94 938.667 1234.78 938.667 1045.34C938.667 946.351 890.027 852.484 792.747 773.124C695.467 693.764 622.08 576.004 597.333 452.271C572.587 576.004 500.053 694.617 401.92 773.124C303.787 851.631 256 947.204 256 1045.34C256 1234.78 409.6 1390.94 597.333 1390.94Z" stroke="#50D3FF" stroke-width="119.72" stroke-linecap="round" stroke-linejoin="round"/>
<path d="M1071.79 563.202C1130.48 469.431 1172.08 366 1194.67 257.708C1237.34 471.042 1365.34 675.842 1536 812.375C1706.67 948.908 1792 1111.04 1792 1281.71C1792.49 1399.66 1757.94 1515.11 1692.74 1613.41C1627.54 1711.7 1534.62 1788.43 1425.76 1833.86C1316.9 1879.28 1197.01 1891.36 1081.28 1868.57C965.543 1845.77 859.184 1789.13 775.682 1705.81" stroke="#50D3FF" stroke-width="119.72" stroke-linecap="round" stroke-linejoin="round"/>
</svg>
